<svg width="24" height="24" viewBox="0 0 24 24" fill="none" xmlns="http://www.w3.org/2000/svg">
<path d="M12 2.01562C6.477 2.01562 2 6.49263 2 12.0156C2 17.5386 6.477 22.0156 12 22.0156C17.523 22.0156 22 17.5386 22 12.0156C22 6.49263 17.523 2.01562 12 2.01562ZM12 4.01562C13.32 4.01562 14.77 7.04763 14.991 11.0126L9.021 11.0246C9.241 7.05963 10.68 4.01562 12 4.01562ZM8.46899 4.81863C7.60899 6.49163 7.14899 8.70964 7.03799 11.0176L4.05801 11.0086C4.35601 8.28364 6.19099 5.99763 8.46899 4.81863ZM15.536 4.82364C17.814 6.00264 19.602 8.22463 19.947 11.0246L16.968 11.0156C16.874 8.61562 16.343 6.50564 15.536 4.82364ZM4.064 13.0196L7.043 12.9946C7.154 15.3026 7.61699 17.5586 8.47299 19.2136C6.08099 18.0146 4.408 15.6676 4.064 13.0196ZM9.005 13.0276L14.975 13.0146C14.755 16.9786 13.32 20.0156 12 20.0156C10.68 20.0156 9.225 16.9926 9.005 13.0276ZM16.973 13.0176L19.939 13.0086C19.595 15.6576 17.923 18.0236 15.532 19.2026C16.42 17.3666 16.862 15.3256 16.973 13.0176Z" fill="#F5F2FF"/>
</svg>
