<svg width="49" height="49" viewBox="0 0 49 49" fill="none" xmlns="http://www.w3.org/2000/svg">
<g clip-path="url(#clip0_2705_87521)">
<path fill-rule="evenodd" clip-rule="evenodd" d="M9.38638 -3.0625H39.6136C42.9124 -3.05299 46.0733 -1.73225 48.4058 0.611194C50.7384 2.95463 52.053 6.13029 52.0625 9.4444V39.5601C52.0518 42.8734 50.7367 46.0479 48.4043 48.3904C46.0718 50.7329 42.9116 52.053 39.6136 52.0625H9.38638C6.08842 52.053 2.92817 50.7329 0.595731 48.3904C-1.73671 46.0479 -3.05185 42.8734 -3.0625 39.5601V9.4444C-3.05303 6.13029 -1.73842 2.95463 0.594153 0.611194C2.92672 -1.73225 6.08765 -3.05299 9.38638 -3.0625Z" fill="white"/>
<path fill-rule="evenodd" clip-rule="evenodd" d="M39.7451 18.715C39.7451 18.715 39.4303 16.4825 38.4562 15.4817C37.2229 14.1868 35.8377 14.1794 35.2081 14.1012C30.6748 13.7813 23.8525 13.7813 23.8525 13.7813C23.8525 13.7813 17.0488 13.7812 12.5118 14.1124C11.8785 14.1905 10.497 14.198 9.26366 15.4928C8.28958 16.4788 7.97847 18.7262 7.97847 18.7262C7.77779 20.4766 7.67023 22.2366 7.65625 23.9986V26.4692C7.67041 28.2311 7.77797 29.9911 7.97847 31.7415C7.97847 31.7415 8.29699 33.974 9.26366 34.9749C10.497 36.2697 12.1192 36.2288 12.8451 36.3665C15.4377 36.6158 23.8674 36.6902 23.8674 36.6902C23.8674 36.6902 30.6822 36.6902 35.2155 36.3516C35.8488 36.2772 37.2303 36.2697 38.4636 34.9749C39.4377 33.9889 39.7562 31.7415 39.7562 31.7415C39.957 29.9898 40.0646 28.2286 40.0785 26.4654V23.9874C40.0596 22.2241 39.9496 20.4631 39.7488 18.7113L39.7451 18.715Z" fill="#FF0000"/>
<path fill-rule="evenodd" clip-rule="evenodd" d="M20.5044 29.4422V20.2891L29.2599 24.8842L20.5044 29.4422Z" fill="white"/>
</g>
<defs>
<clipPath id="clip0_2705_87521">
<rect width="55.125" height="55.125" fill="white" transform="translate(-3.0625 -3.0625)"/>
</clipPath>
</defs>
</svg>
